<?xml version="1.0" ?><!DOCTYPE svg  PUBLIC '-//W3C//DTD SVG 1.1//EN'  'http://www.w3.org/Graphics/SVG/1.1/DTD/svg11.dtd'><svg height="512px" style="enable-background:new 0 0 512 512;" version="1.1" viewBox="0 0 512 512" width="512px" xml:space="preserve" xmlns="http://www.w3.org/2000/svg" xmlns:xlink="http://www.w3.org/1999/xlink"><g id="windows_x2C__logo_x2C_"><g><path d="M442.772,116.202L281.721,23.21c-8.084-4.66-17.066-7.044-26.089-7.206V16    c-0.015,0-0.022,0.004-0.033,0.004S255.572,16,255.562,16v0.004c-9.016,0.158-18.005,2.546-26.089,7.206L68.42,116.195    c-16.727,9.66-27.032,27.499-27.032,46.82v185.966c0,19.316,10.305,37.167,27.032,46.816l161.052,92.996    c8.084,4.656,17.066,7.044,26.089,7.206l0,0c0.011,0,0.026,0,0.037,0s0.019,0,0.033,0l0,0c9.016-0.162,18.005-2.546,26.089-7.21    l161.052-92.981c16.728-9.66,27.032-27.503,27.032-46.824V163.022C469.805,143.702,459.5,125.855,442.772,116.202z" style="fill:#1A1A1A;"/><polygon points="232.008,165.171 232.037,241.321 340.438,241.358     340.6,143.286   " style="fill-rule:evenodd;clip-rule:evenodd;fill:#7EBA42;"/><polygon points="232.178,326.187 340.6,347.702 340.57,249.936     232.037,249.534   " style="fill-rule:evenodd;clip-rule:evenodd;fill:#FDB814;"/><polygon points="154.387,311.144 222.023,324.477 222.023,249.703     154.416,249.663   " style="fill-rule:evenodd;clip-rule:evenodd;fill:#359FD9;"/><polygon points="154.387,179.886 154.387,241.288 221.986,241.358     222.023,166.545   " style="fill-rule:evenodd;clip-rule:evenodd;fill:#F05124;"/></g></g><g id="Layer_1"/></svg>